CD_DA

CATALOG "0602478372049"
CD_TEXT {
  LANGUAGE_MAP {
    0: 9
  }
  LANGUAGE 0 {
    TITLE "The Life of a Showgirl"
    PERFORMER "Taylor Swift"
    UPC_EAN "0602478372049"
    SIZE_INFO { 0,  1, 12,  0, 19, 15,  0,  0,  0,  0,  0,  0,
                0,  0,  0,  0,  0,  0,  3,  3, 39,  0,  0,  0,
                0,  0,  0,  0,  9,  0,  0,  0,  0,  0,  0,  0}
  }
}

// Track 1
TRACK AUDIO
NO COPY
NO PRE_EMPHASIS
TWO_CHANNEL_AUDIO
ISRC "USUG12506436"
CD_TEXT {
  LANGUAGE 0 {
    TITLE "The Fate of Ophelia"
    PERFORMER "Taylor Swift"
    ISRC "USUG12506436"
  }
}
FILE "with-cd-text.bin" 0 03:46:05


// Track 2
TRACK AUDIO
NO COPY
NO PRE_EMPHASIS
TWO_CHANNEL_AUDIO
ISRC "USUG12506437"
CD_TEXT {
  LANGUAGE 0 {
    TITLE "Elizabeth Taylor"
    PERFORMER "Taylor Swift"
    ISRC "USUG12506437"
  }
}
FILE "with-cd-text.bin" 03:46:05 03:28:22


// Track 3
TRACK AUDIO
NO COPY
NO PRE_EMPHASIS
TWO_CHANNEL_AUDIO
ISRC "USUG12506438"
CD_TEXT {
  LANGUAGE 0 {
    TITLE "Opalite"
    PERFORMER "Taylor Swift"
    ISRC "USUG12506438"
  }
}
FILE "with-cd-text.bin" 07:14:27 03:55:27


// Track 4
TRACK AUDIO
NO COPY
NO PRE_EMPHASIS
TWO_CHANNEL_AUDIO
ISRC "USUG12506439"
CD_TEXT {
  LANGUAGE 0 {
    TITLE "Father Figure"
    PERFORMER "Taylor Swift"
    ISRC "USUG12506439"
  }
}
FILE "with-cd-text.bin" 11:09:54 03:32:58


// Track 5
TRACK AUDIO
NO COPY
NO PRE_EMPHASIS
TWO_CHANNEL_AUDIO
ISRC "USUG12506440"
CD_TEXT {
  LANGUAGE 0 {
    TITLE "Eldest Daughter"
    PERFORMER "Taylor Swift"
    ISRC "USUG12506440"
  }
}
FILE "with-cd-text.bin" 14:42:37 04:06:27


// Track 6
TRACK AUDIO
NO COPY
NO PRE_EMPHASIS
TWO_CHANNEL_AUDIO
ISRC "USUG12506441"
CD_TEXT {
  LANGUAGE 0 {
    TITLE "Ruin The Friendship"
    PERFORMER "Taylor Swift"
    ISRC "USUG12506441"
  }
}
FILE "with-cd-text.bin" 18:48:64 03:40:42


// Track 7
TRACK AUDIO
NO COPY
NO PRE_EMPHASIS
TWO_CHANNEL_AUDIO
ISRC "USUG12506442"
CD_TEXT {
  LANGUAGE 0 {
    TITLE "Actually Romantic"
    PERFORMER "Taylor Swift"
    ISRC "USUG12506442"
  }
}
FILE "with-cd-text.bin" 22:29:31 02:43:52


// Track 8
TRACK AUDIO
NO COPY
NO PRE_EMPHASIS
TWO_CHANNEL_AUDIO
ISRC "USUG12506443"
CD_TEXT {
  LANGUAGE 0 {
    TITLE "Wi$h Li$t"
    PERFORMER "Taylor Swift"
    ISRC "USUG12506443"
  }
}
FILE "with-cd-text.bin" 25:13:08 03:27:27


// Track 9
TRACK AUDIO
NO COPY
NO PRE_EMPHASIS
TWO_CHANNEL_AUDIO
ISRC "USUG12506444"
CD_TEXT {
  LANGUAGE 0 {
    TITLE "Wood"
    PERFORMER "Taylor Swift"
    ISRC "USUG12506444"
  }
}
FILE "with-cd-text.bin" 28:40:35 02:30:39


// Track 10
TRACK AUDIO
NO COPY
NO PRE_EMPHASIS
TWO_CHANNEL_AUDIO
ISRC "USUG12506445"
CD_TEXT {
  LANGUAGE 0 {
    TITLE "CANCELLED!"
    PERFORMER "Taylor Swift"
    ISRC "USUG12506445"
  }
}
FILE "with-cd-text.bin" 31:10:74 03:31:37


// Track 11
TRACK AUDIO
NO COPY
NO PRE_EMPHASIS
TWO_CHANNEL_AUDIO
ISRC "USUG12506446"
CD_TEXT {
  LANGUAGE 0 {
    TITLE "Honey"
    PERFORMER "Taylor Swift"
    ISRC "USUG12506446"
  }
}
FILE "with-cd-text.bin" 34:42:36 03:01:40


// Track 12
TRACK AUDIO
NO COPY
NO PRE_EMPHASIS
TWO_CHANNEL_AUDIO
ISRC "USUG12506447"
CD_TEXT {
  LANGUAGE 0 {
    TITLE "The Life of a Showgirl (Feat. Sabrina Carpenter)"
    PERFORMER "Taylor Swift"
    ISRC "USUG12506447"
  }
}
FILE "with-cd-text.bin" 37:44:01 04:01:58

